<svg xmlns="http://www.w3.org/2000/svg" xmlns:xlink="http://www.w3.org/1999/xlink" width="240" height="90" viewBox="0 0 240 90"><defs><path id="a" d="M6 5.01h228v79.98H6z"/></defs><clipPath id="b"><use xlink:href="#a" overflow="visible"/></clipPath><path clip-path="url(#b)" d="M93.176 23.94c0-.536.43-1.02 1.022-1.02h12.963c6.618 0 12.05 5.38 12.05 11.887 0 6.67-5.432 12.104-11.995 12.104h-5.648v12.642c0 .538-.484 1.02-1.02 1.02h-6.35c-.59 0-1.02-.482-1.02-1.02v-35.61zm13.5 15.116c2.313 0 4.25-1.83 4.25-4.25 0-2.258-1.937-3.98-4.25-3.98h-5.11v8.23h5.11zM124.698 23.94c0-.537.483-1.02 1.02-1.02h6.455c.54 0 1.022.483 1.022 1.02v35.61c0 .538-.483 1.022-1.022 1.022h-6.454c-.54 0-1.022-.484-1.022-1.022V23.94zM142.448 23.94c0-.537.43-1.02 1.02-1.02h6.402c.538 0 1.02.483 1.02 1.02v28.725h12.805c.59 0 1.02.483 1.02 1.02v5.864c0 .537-.43 1.02-1.02 1.02H143.47c-.59 0-1.02-.483-1.02-1.02V23.94zM186.287 22.38c10.76 0 19.365 8.66 19.365 19.42 0 10.757-8.606 19.31-19.365 19.31-10.757 0-19.31-8.553-19.31-19.31 0-10.758 8.553-19.42 19.31-19.42m0 30.124c5.917 0 10.76-4.84 10.76-10.705 0-5.918-4.843-10.813-10.76-10.813-5.862 0-10.704 4.895-10.704 10.812 0 5.863 4.842 10.704 10.704 10.704M216.787 30.827h-7.692c-.592 0-1.02-.484-1.02-1.022v-5.863c0-.537.43-1.02 1.02-1.02h23.883c.592 0 1.022.483 1.022 1.02v5.863c0 .538-.43 1.022-1.022 1.022h-7.692V59.55c0 .538-.483 1.022-1.02 1.022h-6.456c-.537 0-1.02-.484-1.02-1.02V30.826z"/><path clip-path="url(#b)" fill="#005677" d="M93.317 69.313c0-.227.182-.43.432-.43h5.01c2.792 0 5.084 2.268 5.084 5.012 0 2.812-2.292 5.104-5.06 5.104h-3.742v5.33c0 .226-.205.43-.43.43h-.863c-.25 0-.433-.204-.433-.43V69.313zm5.332 8.008c1.86 0 3.447-1.52 3.447-3.47 0-1.838-1.587-3.244-3.448-3.244H95.04v6.715h3.607zM106.837 69.312c0-.227.182-.43.432-.43h5.874c2.722 0 4.945 2.132 4.945 4.83 0 2.09-1.384 3.835-3.357 4.63l3.108 5.76c.16.296 0 .66-.385.66h-1.157c-.204 0-.317-.114-.363-.206l-3.017-6.01h-4.333v5.784c0 .226-.205.43-.432.43h-.884c-.25 0-.433-.204-.433-.43V69.312zm6.193 7.737c1.747 0 3.267-1.452 3.267-3.313 0-1.725-1.52-3.2-3.267-3.2h-4.4v6.512h4.4zM121.83 69.313c0-.227.184-.43.433-.43h8.938c.25 0 .433.203.433.43v.658c0 .228-.183.432-.432.432h-7.62v5.534h6.51c.227 0 .43.205.43.432v.658c0 .25-.203.43-.43.43h-6.51v5.785h7.62c.25 0 .433.206.433.432v.66c0 .225-.183.43-.432.43h-8.937c-.25 0-.432-.205-.432-.43V69.31zM142.226 68.656c2.29 0 3.946.794 5.49 2.11.18.18.203.453.02.634l-.61.612c-.183.227-.364.204-.59-.022-1.18-1.02-2.792-1.7-4.334-1.7-3.584 0-6.328 3.016-6.328 6.53 0 3.494 2.744 6.513 6.328 6.513 1.974 0 3.13-.794 4.333-1.702.227-.18.408-.157.544-.067l.68.612c.182.137.137.454-.022.613-1.543 1.497-3.493 2.2-5.512 2.2-4.538 0-8.19-3.607-8.19-8.144 0-4.536 3.652-8.188 8.19-8.188M151.23 69.313c0-.227.204-.43.43-.43h.908c.228 0 .432.203.432.43V84.33c0 .227-.204.43-.432.43h-.907c-.226 0-.43-.203-.43-.43V69.314zM156.606 82.38c.113-.137.227-.295.34-.43.227-.297.476-.48.794-.205.16.136 1.815 1.724 3.834 1.724 1.837 0 3.04-1.158 3.04-2.496 0-1.565-1.36-2.495-3.97-3.584-2.495-1.09-3.993-2.11-3.993-4.695 0-1.543 1.227-4.038 4.833-4.038 2.224 0 3.88 1.156 3.88 1.156.135.068.408.34.135.77-.09.137-.18.296-.27.432-.205.317-.432.408-.795.204-.16-.092-1.59-1.044-2.973-1.044-2.403 0-3.13 1.542-3.13 2.495 0 1.52 1.157 2.405 3.062 3.2 3.063 1.247 5.036 2.403 5.036 5.036 0 2.358-2.246 4.082-4.9 4.082-2.676 0-4.49-1.565-4.786-1.838-.18-.158-.408-.34-.136-.77M169.718 69.313c0-.227.204-.43.43-.43h.908c.228 0 .432.203.432.43V84.33c0 .227-.204.43-.432.43h-.907c-.228 0-.432-.203-.432-.43V69.314zM183.102 68.656c4.537 0 8.166 3.65 8.166 8.188s-3.63 8.143-8.166 8.143-8.145-3.605-8.145-8.143 3.607-8.188 8.145-8.188m0 14.744c3.606 0 6.578-2.95 6.578-6.556s-2.972-6.6-6.578-6.6-6.556 2.993-6.556 6.6 2.95 6.556 6.556 6.556M194.738 69.063c0-.226.204-.407.43-.407h.568l10.23 12.748h.046v-12.09c0-.228.18-.432.43-.432h.794c.228 0 .432.204.432.43V84.58c0 .227-.204.408-.432.408h-.407L196.416 71.99h-.022v12.34c0 .228-.182.432-.432.432h-.794c-.228 0-.432-.204-.432-.43V69.06z"/><path clip-path="url(#b)" fill="#00557B" d="M79.467 22.815H43.854L61.66 5.01H6v55.66l17.807-17.805v35.613l55.66-55.663zm-45.63 31.447V32.847H55.25L33.837 54.262zM16.03 15.042h21.416L16.03 36.455V15.04z"/></svg>